<svg width="25" height="24" viewBox="0 0 25 24" fill="none" xmlns="http://www.w3.org/2000/svg">
<path fill-rule="evenodd" clip-rule="evenodd" d="M9.03532 4.00004H16.2808C16.8871 4.00596 17.4774 4.19551 17.9738 4.54362C18.4661 4.88881 18.8432 5.37389 19.0564 5.93583L19.9848 8.22598L20.9179 7.29293C21.3084 6.90241 21.9416 6.90241 22.3321 7.29293C22.7226 7.68346 22.7226 8.31662 22.3321 8.70715L20.3321 10.7071C20.095 10.9443 19.7548 11.0467 19.4262 10.9801C19.0976 10.9134 18.8242 10.6865 18.6983 10.3757L17.1983 6.67574C17.1948 6.66721 17.1915 6.65862 17.1882 6.64999C17.1175 6.46066 16.9911 6.2972 16.8256 6.18117C16.6612 6.06591 16.466 6.00281 16.2653 6.00004H9.025L9.00204 5.99978C8.79829 5.9951 8.59798 6.05278 8.42792 6.16511C8.25787 6.27743 8.1262 6.43904 8.05054 6.62828L6.55349 10.3714C6.42866 10.6835 6.15537 10.912 5.82609 10.9796C5.4968 11.0472 5.15559 10.9448 4.91789 10.7071L2.91789 8.70715C2.52737 8.31662 2.52737 7.68346 2.91789 7.29293C3.30842 6.90241 3.94158 6.90241 4.33211 7.29293L5.2597 8.22052L6.19346 5.8858C6.19345 5.88584 6.19348 5.88577 6.19346 5.8858C6.42044 5.31814 6.81549 4.83326 7.32562 4.4963C7.83226 4.16165 8.42843 3.98866 9.03532 4.00004Z" fill="#595959"/>
<path fill-rule="evenodd" clip-rule="evenodd" d="M6.625 14C6.625 13.4477 7.07272 13 7.625 13H7.635C8.18728 13 8.635 13.4477 8.635 14C8.635 14.5523 8.18728 15 7.635 15H7.625C7.07272 15 6.625 14.5523 6.625 14Z" fill="#595959"/>
<path fill-rule="evenodd" clip-rule="evenodd" d="M16.625 14C16.625 13.4477 17.0727 13 17.625 13H17.635C18.1873 13 18.635 13.4477 18.635 14C18.635 14.5523 18.1873 15 17.635 15H17.625C17.0727 15 16.625 14.5523 16.625 14Z" fill="#595959"/>
<path fill-rule="evenodd" clip-rule="evenodd" d="M5.625 11C5.07272 11 4.625 11.4477 4.625 12V16C4.625 16.5523 5.07272 17 5.625 17H19.625C20.1773 17 20.625 16.5523 20.625 16V12C20.625 11.4477 20.1773 11 19.625 11H5.625ZM2.625 12C2.625 10.3431 3.96815 9 5.625 9H19.625C21.2819 9 22.625 10.3431 22.625 12V16C22.625 17.6569 21.2819 19 19.625 19H5.625C3.96815 19 2.625 17.6569 2.625 16V12Z" fill="#595959"/>
<path fill-rule="evenodd" clip-rule="evenodd" d="M5.625 17C6.17728 17 6.625 17.4477 6.625 18V20C6.625 20.5523 6.17728 21 5.625 21C5.07272 21 4.625 20.5523 4.625 20V18C4.625 17.4477 5.07272 17 5.625 17Z" fill="#1F1F1F"/>
<path fill-rule="evenodd" clip-rule="evenodd" d="M19.625 17C20.1773 17 20.625 17.4477 20.625 18V20C20.625 20.5523 20.1773 21 19.625 21C19.0727 21 18.625 20.5523 18.625 20V18C18.625 17.4477 19.0727 17 19.625 17Z" fill="#1F1F1F"/>
</svg>
