<svg width="64" height="64" viewBox="0 0 64 64" fill="none" xmlns="http://www.w3.org/2000/svg">
<rect width="64" height="64" rx="8" fill="#F79009"/>
<path fill-rule="evenodd" clip-rule="evenodd" d="M25.4636 14.7196C25.8435 14.2636 26.4064 14 27 14H37C37.5936 14 38.1565 14.2636 38.5364 14.7196L42.9367 20H48C49.5913 20 51.1174 20.6321 52.2426 21.7574C53.3679 22.8826 54 24.4087 54 26V44C54 45.5913 53.3679 47.1174 52.2426 48.2426C51.1174 49.3679 49.5913 50 48 50H16C14.4087 50 12.8826 49.3679 11.7574 48.2426C10.6321 47.1174 10 45.5913 10 44V26C10 24.4087 10.6321 22.8826 11.7574 21.7574C12.8826 20.6321 14.4087 20 16 20H21.0632L25.4636 14.7196ZM27.9367 18L23.5364 23.2804C23.1565 23.7364 22.5936 24 22 24H16C15.4696 24 14.9609 24.2107 14.5858 24.5858C14.2107 24.9609 14 25.4696 14 26V44C14 44.5304 14.2107 45.0391 14.5858 45.4142C14.9609 45.7893 15.4696 46 16 46H48C48.5304 46 49.0391 45.7893 49.4142 45.4142C49.7893 45.0391 50 44.5304 50 44V26C50 25.4696 49.7893 24.9609 49.4142 24.5858C49.0391 24.2107 48.5304 24 48 24H42C41.4064 24 40.8435 23.7364 40.4636 23.2804L36.0633 18H27.9367Z" fill="white"/>
<path fill-rule="evenodd" clip-rule="evenodd" d="M32 30C29.7909 30 28 31.7909 28 34C28 36.2091 29.7909 38 32 38C34.2091 38 36 36.2091 36 34C36 31.7909 34.2091 30 32 30ZM24 34C24 29.5817 27.5817 26 32 26C36.4183 26 40 29.5817 40 34C40 38.4183 36.4183 42 32 42C27.5817 42 24 38.4183 24 34Z" fill="white"/>
</svg>
