<svg width="20" height="20" viewBox="0 0 20 20" fill="none" xmlns="http://www.w3.org/2000/svg">
<path fill-rule="evenodd" clip-rule="evenodd" d="M1.66675 5.00033C1.66675 4.54009 2.03984 4.16699 2.50008 4.16699H17.5001C17.9603 4.16699 18.3334 4.54009 18.3334 5.00033C18.3334 5.46056 17.9603 5.83366 17.5001 5.83366H2.50008C2.03984 5.83366 1.66675 5.46056 1.66675 5.00033Z" fill="#FF0000"/>
<path fill-rule="evenodd" clip-rule="evenodd" d="M4.16659 4.16699C4.62682 4.16699 4.99992 4.54009 4.99992 5.00033V16.667C4.99992 16.8126 5.08113 17.028 5.27667 17.2236C5.47222 17.4191 5.68761 17.5003 5.83325 17.5003H14.1666C14.3122 17.5003 14.5276 17.4191 14.7232 17.2236C14.9187 17.028 14.9999 16.8126 14.9999 16.667V5.00033C14.9999 4.54009 15.373 4.16699 15.8333 4.16699C16.2935 4.16699 16.6666 4.54009 16.6666 5.00033V16.667C16.6666 17.3547 16.3311 17.9726 15.9017 18.4021C15.4722 18.8315 14.8543 19.167 14.1666 19.167H5.83325C5.14556 19.167 4.52762 18.8315 4.09816 18.4021C3.66871 17.9726 3.33325 17.3547 3.33325 16.667V5.00033C3.33325 4.54009 3.70635 4.16699 4.16659 4.16699Z" fill="#FF0000"/>
<path fill-rule="evenodd" clip-rule="evenodd" d="M7.77667 2.77643C7.58113 2.97198 7.49992 3.18737 7.49992 3.33301V4.99967C7.49992 5.45991 7.12682 5.83301 6.66659 5.83301C6.20635 5.83301 5.83325 5.45991 5.83325 4.99967V3.33301C5.83325 2.64531 6.16871 2.02737 6.59816 1.59792C7.02762 1.16846 7.64556 0.833008 8.33325 0.833008H11.6666C12.3543 0.833008 12.9722 1.16846 13.4017 1.59792C13.8311 2.02737 14.1666 2.64531 14.1666 3.33301V4.99967C14.1666 5.45991 13.7935 5.83301 13.3333 5.83301C12.873 5.83301 12.4999 5.45991 12.4999 4.99967V3.33301C12.4999 3.18737 12.4187 2.97198 12.2232 2.77643C12.0276 2.58089 11.8122 2.49967 11.6666 2.49967H8.33325C8.18761 2.49967 7.97222 2.58089 7.77667 2.77643Z" fill="#FF0000"/>
</svg>
