<svg width="64" height="64" viewBox="0 0 64 64" fill="none" xmlns="http://www.w3.org/2000/svg">
<rect width="64" height="64" rx="8" fill="#F79009"/>
<path fill-rule="evenodd" clip-rule="evenodd" d="M18 16C16.8954 16 16 16.8954 16 18V46C16 47.1046 16.8954 48 18 48H46C47.1046 48 48 47.1046 48 46V18C48 16.8954 47.1046 16 46 16H18ZM12 18C12 14.6863 14.6863 12 18 12H46C49.3137 12 52 14.6863 52 18V46C52 49.3137 49.3137 52 46 52H18C14.6863 52 12 49.3137 12 46V18Z" fill="white"/>
<path fill-rule="evenodd" clip-rule="evenodd" d="M26 24C24.8954 24 24 24.8954 24 26C24 27.1046 24.8954 28 26 28C27.1046 28 28 27.1046 28 26C28 24.8954 27.1046 24 26 24ZM20 26C20 22.6863 22.6863 20 26 20C29.3137 20 32 22.6863 32 26C32 29.3137 29.3137 32 26 32C22.6863 32 20 29.3137 20 26Z" fill="white"/>
<path fill-rule="evenodd" clip-rule="evenodd" d="M36.758 30.413C37.8832 29.2881 39.409 28.6562 41 28.6562C42.591 28.6562 44.1168 29.2881 45.242 30.413L51.4142 36.5852C52.1953 37.3662 52.1953 38.6326 51.4142 39.4136C50.6332 40.1947 49.3668 40.1947 48.5858 39.4136L42.414 33.2418C42.4139 33.2418 42.4141 33.2419 42.414 33.2418C42.039 32.867 41.5302 32.6562 41 32.6562C40.4698 32.6562 39.9612 32.8668 39.5862 33.2416C39.5861 33.2417 39.5863 33.2415 39.5862 33.2416L21.4142 51.4136C20.6332 52.1947 19.3668 52.1947 18.5858 51.4136C17.8047 50.6326 17.8047 49.3662 18.5858 48.5852L36.758 30.413Z" fill="white"/>
</svg>
