<svg width="25" height="24" viewBox="0 0 25 24" fill="none" xmlns="http://www.w3.org/2000/svg">
<path fill-rule="evenodd" clip-rule="evenodd" d="M12.2611 1.21065C12.6222 0.929784 13.1278 0.929784 13.4889 1.21065L22.4889 8.21065C22.7325 8.4001 22.875 8.69141 22.875 9V20C22.875 20.7957 22.5589 21.5587 21.9963 22.1213C21.4337 22.6839 20.6707 23 19.875 23H5.875C5.07935 23 4.31629 22.6839 3.75368 22.1213C3.19107 21.5587 2.875 20.7957 2.875 20V9C2.875 8.69141 3.01747 8.4001 3.26106 8.21065L12.2611 1.21065ZM4.875 9.48908V20C4.875 20.2652 4.98036 20.5196 5.16789 20.7071C5.35543 20.8946 5.60978 21 5.875 21H19.875C20.1402 21 20.3946 20.8946 20.5821 20.7071C20.7696 20.5196 20.875 20.2652 20.875 20V9.48908L12.875 3.26686L4.875 9.48908Z" fill="#595959"/>
<path fill-rule="evenodd" clip-rule="evenodd" d="M8.875 12C8.875 11.4477 9.32272 11 9.875 11H15.875C16.4273 11 16.875 11.4477 16.875 12V22C16.875 22.5523 16.4273 23 15.875 23C15.3227 23 14.875 22.5523 14.875 22V13H10.875V22C10.875 22.5523 10.4273 23 9.875 23C9.32272 23 8.875 22.5523 8.875 22V12Z" fill="#595959"/>
</svg>
