<svg width="32" height="32" viewBox="0 0 32 32" fill="none" xmlns="http://www.w3.org/2000/svg">
<path d="M15.9295 7.5498C13.4226 7.55012 10.9385 8.62757 11.1996 10.7805L11.8396 15.4602C11.9522 16.2839 12.5084 17.6004 13.3398 17.6004H13.399L14.0796 25.77C14.109 26.1229 14.365 26.41 14.7196 26.41H17.2796C17.6342 26.41 17.8902 26.1229 17.9196 25.77L18.6002 17.6004H18.6594C19.4905 17.6004 20.047 16.2836 20.1596 15.4605L20.7996 10.7802C20.967 8.62565 18.4367 7.54916 15.9295 7.5498Z" fill="#1874A5"/>
<path d="M16.0079 16.291L15.9925 16.3313C15.9976 16.3192 16.0012 16.3067 16.0063 16.2945L16.0079 16.291ZM10.8821 22.0987C6.3618 22.7374 3.2002 24.2654 3.2002 26.5147C3.2002 29.5445 8.48276 32.0005 16.0002 32.0005C23.5176 32.0005 28.8002 29.5445 28.8002 26.5147C28.8002 24.2654 25.6389 22.7374 21.1189 22.0987L20.4927 23.1649C23.8994 23.6376 26.2402 24.6309 26.2402 25.7835C26.2402 27.3995 21.6556 28.7093 16.0002 28.7093C10.3448 28.7093 5.7602 27.3995 5.7602 25.7835C5.75988 24.6347 8.08532 23.6424 11.5026 23.1678L10.8821 22.0987Z" fill="#1874A5"/>
<path d="M15.9996 6.72C17.8553 6.72 19.3596 5.21568 19.3596 3.36C19.3596 1.50432 17.8553 0 15.9996 0C14.144 0 12.6396 1.50432 12.6396 3.36C12.6396 5.21568 14.144 6.72 15.9996 6.72Z" fill="#1874A5"/>
</svg>
