<svg width="33" height="32" viewBox="0 0 33 32" fill="none" xmlns="http://www.w3.org/2000/svg">
<g clip-path="url(#clip0_9011_42063)">
<path d="M9.44875 -0.00892652C9.51117 -0.00911222 9.57359 -0.00929791 9.6379 -0.00948924C9.8462 -0.0100294 10.0545 -0.0101262 10.2628 -0.0102197C10.4125 -0.0105092 10.5622 -0.0108232 10.712 -0.01116C11.1182 -0.0119786 11.5245 -0.0123851 11.9308 -0.0126607C12.185 -0.0128339 12.4392 -0.0130988 12.6934 -0.0133797C13.3987 -0.0141415 14.104 -0.0147852 14.8092 -0.0149969C14.8543 -0.0150106 14.8994 -0.0150243 14.9458 -0.0150385C14.991 -0.0150521 15.0362 -0.0150658 15.0827 -0.0150798C15.1743 -0.0151075 15.2658 -0.0151354 15.3573 -0.0151636C15.4027 -0.0151774 15.4481 -0.0151912 15.4949 -0.0152055C16.2293 -0.0154518 16.9637 -0.0165415 17.698 -0.0179985C18.4539 -0.0194859 19.2097 -0.0202598 19.9656 -0.0203324C20.3892 -0.0203894 20.8128 -0.0207417 21.2365 -0.0218836C21.6355 -0.0229195 22.0345 -0.0230455 22.4335 -0.0224999C22.5791 -0.0224521 22.7248 -0.0227191 22.8705 -0.0233411C25.5787 -0.0342178 27.9657 0.874883 29.9094 2.78281C30.4376 3.31936 30.8689 3.9147 31.25 4.56235C31.2717 4.5989 31.2933 4.63545 31.3156 4.6731C32.0744 5.9714 32.5102 7.44271 32.5088 8.9486C32.5091 9.04223 32.5091 9.04223 32.5093 9.13775C32.5099 9.34605 32.51 9.55434 32.5101 9.76264C32.5104 9.91236 32.5107 10.0621 32.511 10.2118C32.5118 10.6181 32.5122 11.0244 32.5125 11.4307C32.5127 11.6849 32.513 11.9391 32.5132 12.1933C32.514 12.8985 32.5146 13.6038 32.5149 14.3091C32.5149 14.3542 32.5149 14.3992 32.5149 14.4457C32.5149 14.4909 32.5149 14.536 32.5149 14.5826C32.515 14.6741 32.515 14.7656 32.515 14.8572C32.515 14.9026 32.515 14.948 32.5151 14.9948C32.5153 15.7291 32.5164 16.4635 32.5179 17.1979C32.5193 17.9537 32.5201 18.7096 32.5202 19.4655C32.5202 19.8891 32.5206 20.3127 32.5217 20.7363C32.5228 21.1353 32.5229 21.5343 32.5224 21.9333C32.5223 22.079 32.5226 22.2247 32.5232 22.3703C32.5341 25.0786 31.625 27.4656 29.717 29.4092C29.1805 29.9374 28.5852 30.3687 27.9375 30.7499C27.901 30.7715 27.8644 30.7932 27.8268 30.8155C26.5285 31.5742 25.0571 32.01 23.5513 32.0086C23.4888 32.0088 23.4264 32.009 23.3621 32.0092C23.1538 32.0097 22.9455 32.0098 22.7372 32.0099C22.5875 32.0102 22.4378 32.0105 22.288 32.0109C21.8818 32.0117 21.4755 32.0121 21.0692 32.0124C20.815 32.0125 20.5608 32.0128 20.3066 32.0131C19.6013 32.0138 18.896 32.0145 18.1908 32.0147C18.1232 32.0147 18.1232 32.0147 18.0542 32.0147C18.009 32.0148 17.9638 32.0148 17.9173 32.0148C17.8257 32.0148 17.7342 32.0148 17.6427 32.0149C17.5973 32.0149 17.5519 32.0149 17.5051 32.0149C16.7707 32.0152 16.0363 32.0162 15.302 32.0177C14.5461 32.0192 13.7903 32.02 13.0344 32.02C12.6108 32.0201 12.1872 32.0204 11.7636 32.0216C11.3645 32.0226 10.9655 32.0227 10.5665 32.0222C10.4209 32.0222 10.2752 32.0224 10.1295 32.023C7.42128 32.0339 5.03428 31.1248 3.09061 29.2169C2.56242 28.6803 2.13111 28.085 1.75 27.4374C1.72834 27.4008 1.70668 27.3643 1.68436 27.3266C0.75165 25.7306 0.450699 24.005 0.459567 22.1744C0.459142 22.024 0.458585 21.8736 0.457908 21.7232C0.4565 21.3198 0.457028 20.9164 0.458026 20.513C0.458587 20.2599 0.458475 20.0067 0.458185 19.7536C0.458137 19.7113 0.45809 19.6689 0.45804 19.6253C0.45794 19.5392 0.457839 19.4531 0.457736 19.3669C0.45685 18.5643 0.457861 17.7616 0.459549 16.9589C0.460945 16.274 0.460702 15.5891 0.459262 14.9042C0.45758 14.1039 0.456936 13.3036 0.457891 12.5033C0.45799 12.4176 0.458088 12.3318 0.458185 12.2461C0.458233 12.2039 0.458282 12.1618 0.458331 12.1183C0.458598 11.8248 0.458137 11.5313 0.457411 11.2378C0.456498 10.841 0.457154 10.4441 0.458941 10.0472C0.459348 9.90295 0.459245 9.75867 0.458546 9.6144C0.44689 6.9603 1.3628 4.56564 3.21433 2.65781C4.84204 1.03947 7.14333 -0.0110941 9.44875 -0.00892652Z" fill="#FF3333"/>
<path d="M19.8125 8.74981C20.0185 8.9144 20.2036 9.09558 20.3892 9.28277C20.4412 9.33435 20.4932 9.38594 20.5468 9.43909C20.6561 9.54791 20.7651 9.65713 20.8736 9.76673C21.0379 9.93219 21.2039 10.0957 21.3701 10.2592C21.9312 10.8171 22.425 11.3327 22.75 12.0623C22.7716 12.1094 22.7932 12.1566 22.8154 12.2051C22.9897 12.5873 23.1558 12.9727 23.3203 13.3592C23.7582 14.4746 23.7582 14.4746 24.4336 15.449C24.5625 15.6248 24.5625 15.6248 24.5694 15.8214C24.5076 16.1573 24.2523 16.3622 24.0179 16.5929C23.9674 16.6441 23.9169 16.6953 23.8648 16.748C23.6978 16.9167 23.5294 17.084 23.3608 17.2513C23.2442 17.3681 23.1276 17.4851 23.0111 17.6021C22.7669 17.847 22.5218 18.0912 22.2763 18.3349C21.9928 18.6164 21.7107 18.8991 21.4292 19.1826C21.158 19.4558 20.8858 19.7278 20.613 19.9995C20.4973 20.115 20.3818 20.2307 20.2666 20.3468C20.1055 20.5089 19.9432 20.6697 19.7806 20.8302C19.7332 20.8784 19.6858 20.9266 19.6369 20.9762C19.3667 21.2401 19.1975 21.3792 18.8125 21.3748C18.689 21.3213 18.689 21.3213 18.5859 21.2381C17.9871 20.8178 17.2736 20.7725 16.5667 20.7472C16.3669 20.74 16.1672 20.7306 15.9675 20.7212C15.8672 20.7165 15.7669 20.712 15.6666 20.7075C15.2121 20.687 14.7598 20.6497 14.3067 20.6087C13.8905 20.5733 13.4751 20.5528 13.0579 20.5376C12.9449 20.5332 12.8319 20.5288 12.7189 20.5243C12.5505 20.5177 12.3821 20.5116 12.2136 20.5071C11.0138 20.4753 11.0138 20.4753 10.5625 20.1248C10.1866 19.7241 10.1007 19.4029 10.1079 18.8592C10.1491 18.4445 10.3919 18.2102 10.7012 17.9537C11.0065 17.7374 11.2536 17.729 11.6201 17.7239C11.6739 17.7227 11.7276 17.7215 11.783 17.7203C11.9543 17.7165 12.1256 17.7136 12.2969 17.7107C12.4132 17.7084 12.5295 17.7059 12.6458 17.7034C12.9305 17.6974 13.2152 17.6922 13.5 17.6873C13.4644 17.652 13.4288 17.6166 13.3922 17.5802C12.5261 16.7196 11.6607 15.8584 10.7961 14.9964C10.378 14.5795 9.95959 14.1629 9.54066 13.7468C9.17549 13.3842 8.81076 13.021 8.44656 12.6574C8.25373 12.4649 8.06069 12.2726 7.86712 12.0809C7.68482 11.9003 7.50313 11.7191 7.32187 11.5375C7.25535 11.471 7.18861 11.4048 7.12164 11.3388C6.67907 10.9022 6.35195 10.5674 6.33984 9.91387C6.34989 9.49807 6.46477 9.23744 6.75 8.93731C7.08205 8.64513 7.4145 8.60497 7.84253 8.61187C8.5818 8.67261 9.13803 9.44161 9.62891 9.93511C9.69404 10.0004 9.75918 10.0656 9.82434 10.1308C9.99422 10.3009 10.1639 10.4712 10.3335 10.6416C10.5073 10.816 10.6813 10.9902 10.8552 11.1645C11.1953 11.5052 11.5352 11.8462 11.875 12.1873C11.8544 12.1254 11.8337 12.0636 11.8125 11.9998C11.7689 11.4732 11.8331 11.1094 12.1445 10.6717C12.3745 10.4364 12.5733 10.3255 12.9023 10.2874C12.9758 10.2879 13.0493 10.2884 13.125 10.2889C13.2352 10.2881 13.2352 10.2881 13.3477 10.2874C13.7741 10.3368 14.034 10.5663 14.332 10.8514C14.3656 10.8828 14.3991 10.9142 14.4337 10.9466C14.5402 11.0465 14.6467 11.1465 14.75 11.2498C14.7294 11.2111 14.7087 11.1725 14.6875 11.1326C14.571 10.7685 14.5649 10.3995 14.7227 10.0467C14.9105 9.71646 15.2094 9.45407 15.5625 9.31231C15.7334 9.29131 15.7334 9.29131 15.9219 9.28887C15.9834 9.2871 16.045 9.28532 16.1084 9.2835C16.6174 9.35534 16.9385 9.6536 17.2812 10.0154C17.3207 10.056 17.3602 10.0966 17.4009 10.1385C17.497 10.2375 17.5925 10.3371 17.6875 10.4373C17.6674 10.3817 17.6472 10.3261 17.6265 10.2689C17.5115 9.89769 17.4996 9.53134 17.6602 9.17168C17.8373 8.86131 18.0908 8.65699 18.3945 8.47637C18.9434 8.34872 19.3399 8.45602 19.8125 8.74981Z" fill="#FEFEFE"/>
<path d="M26.1758 15.6526C26.2458 15.6512 26.3158 15.6498 26.3879 15.6484C27.0043 15.7506 27.4104 16.1135 27.832 16.551C27.8802 16.5991 27.9285 16.6471 27.9781 16.6967C28.3746 17.0999 28.7517 17.5121 28.7695 18.1018C28.7462 19.2565 27.3462 20.2305 26.5959 20.9861C26.5382 21.0442 26.4805 21.1024 26.421 21.1623C26.1783 21.4066 25.9355 21.6509 25.6925 21.8949C25.3473 22.2414 25.0028 22.5885 24.6592 22.9365C24.4155 23.1831 24.1711 23.429 23.9262 23.6744C23.7807 23.8202 23.6357 23.9663 23.4912 24.1131C23.3301 24.2767 23.1678 24.439 23.0051 24.6012C22.9587 24.6489 22.9122 24.6966 22.8643 24.7458C22.4521 25.1524 21.9527 25.5013 21.3594 25.5393C20.7424 25.5327 20.3217 25.0487 19.9209 24.6413C19.8242 24.5432 19.7262 24.4466 19.628 24.35C19.5653 24.2871 19.5027 24.2242 19.4402 24.1611C19.3841 24.1048 19.3281 24.0485 19.2703 23.9904C18.9288 23.5728 18.8865 23.1515 18.9375 22.6252C19.1125 22.0078 19.6919 21.5488 20.1331 21.1071C20.2162 21.0235 20.2162 21.0235 20.3011 20.9382C20.4517 20.7867 20.6026 20.6354 20.7535 20.4842C20.8481 20.3895 20.9425 20.2947 21.037 20.2C21.3333 19.9029 21.6297 19.6058 21.9263 19.309C22.2675 18.9675 22.6083 18.6257 22.9487 18.2834C23.2128 18.0179 23.4774 17.7528 23.7422 17.4879C23.8999 17.3301 24.0575 17.1721 24.2147 17.0138C24.3899 16.8373 24.5659 16.6616 24.7419 16.486C24.7934 16.4339 24.845 16.3819 24.898 16.3282C25.2834 15.9456 25.6056 15.6519 26.1758 15.6526Z" fill="#FDFEFE"/>
<path d="M10.0625 7.31234C10.7081 7.8588 11.1994 8.58423 11.3125 9.43734C11.3808 10.5224 11.3808 10.5224 11.1875 10.8123C11.1599 10.7841 11.1323 10.7558 11.1039 10.7267C10.8149 10.4306 10.5247 10.1358 10.2338 9.8415C10.1257 9.73176 10.0178 9.62174 9.91017 9.51143C9.75483 9.35227 9.59848 9.19416 9.44191 9.03622C9.37087 8.96277 9.37087 8.96277 9.2984 8.88783C8.84722 8.43642 8.34113 8.12349 7.69142 8.0975C7.17876 8.10208 6.7702 8.27151 6.37867 8.60238C6.27945 8.70881 6.20188 8.8139 6.12501 8.93734C6.09939 8.97835 6.07377 9.01936 6.04738 9.06161C5.83812 9.45631 5.80064 9.87487 5.87501 10.3123C6.05463 10.8757 6.3133 11.2499 6.73756 11.6551C6.78983 11.7068 6.84211 11.7584 6.89597 11.8116C7.06115 11.9744 7.2278 12.1356 7.39454 12.2967C7.50764 12.4076 7.62064 12.5186 7.73353 12.6297C8.00872 12.9001 8.28512 13.1692 8.56251 13.4373C8.35406 13.6458 8.08025 13.5892 7.79689 13.5897C6.77114 13.587 5.95301 13.2583 5.21461 12.5289C4.46807 11.6712 4.17884 10.7521 4.25001 9.62484C4.37058 8.6713 4.85109 7.86052 5.58815 7.25009C6.97128 6.23082 8.70133 6.25313 10.0625 7.31234Z" fill="#FCFDFE"/>
</g>
<defs>
<clipPath id="clip0_9011_42063">
<rect width="32" height="32" fill="white" transform="translate(0.5)"/>
</clipPath>
</defs>
</svg>
