<svg width="25" height="24" viewBox="0 0 25 24" fill="none" xmlns="http://www.w3.org/2000/svg">
<path fill-rule="evenodd" clip-rule="evenodd" d="M12.375 3C7.40444 3 3.375 7.02944 3.375 12C3.375 16.9706 7.40444 21 12.375 21C17.3456 21 21.375 16.9706 21.375 12C21.375 7.02944 17.3456 3 12.375 3ZM1.375 12C1.375 5.92487 6.29987 1 12.375 1C18.4501 1 23.375 5.92487 23.375 12C23.375 18.0751 18.4501 23 12.375 23C6.29987 23 1.375 18.0751 1.375 12Z" fill="#595959"/>
<path fill-rule="evenodd" clip-rule="evenodd" d="M12.375 11C12.9273 11 13.375 11.4477 13.375 12V16C13.375 16.5523 12.9273 17 12.375 17C11.8227 17 11.375 16.5523 11.375 16V12C11.375 11.4477 11.8227 11 12.375 11Z" fill="#595959"/>
<path fill-rule="evenodd" clip-rule="evenodd" d="M11.375 8C11.375 7.44772 11.8227 7 12.375 7H12.385C12.9373 7 13.385 7.44772 13.385 8C13.385 8.55228 12.9373 9 12.385 9H12.375C11.8227 9 11.375 8.55228 11.375 8Z" fill="#595959"/>
</svg>
