<svg width="61" height="53" viewBox="0 0 61 53" fill="none" xmlns="http://www.w3.org/2000/svg">
<path d="M3.18195 37.9902H27.3449V20.1659H3.18195V37.9902Z" fill="#F5F9FF"/>
<path d="M27.3449 22.3896H3.18195V20.1666H27.3449V22.3896Z" fill="#D0DBF7"/>
<path d="M5.1219 21.33C5.1219 21.611 4.89411 21.8389 4.61311 21.8389C4.33216 21.8389 4.10443 21.611 4.10443 21.33C4.10443 21.0491 4.33216 20.8213 4.61311 20.8213C4.89411 20.8213 5.1219 21.0491 5.1219 21.33Z" fill="#F2F2F2"/>
<path d="M6.83467 21.33C6.83467 21.611 6.60694 21.8389 6.32593 21.8389C6.04499 21.8389 5.8172 21.611 5.8172 21.33C5.8172 21.0491 6.04499 20.8213 6.32593 20.8213C6.60694 20.8213 6.83467 21.0491 6.83467 21.33Z" fill="#F2F2F2"/>
<path d="M8.5478 21.33C8.5478 21.611 8.32007 21.8389 8.03901 21.8389C7.75807 21.8389 7.53033 21.611 7.53033 21.33C7.53033 21.0491 7.75807 20.8213 8.03901 20.8213C8.32007 20.8213 8.5478 21.0491 8.5478 21.33Z" fill="#F2F2F2"/>
<path d="M19.3888 27.2381L18.1739 26.0234L15.2636 28.9337L12.3531 26.0234L11.1382 27.2381L14.0487 30.1484L11.1382 33.0587L12.3531 34.2734L15.2636 31.3631L18.1739 34.2734L19.3888 33.0587L16.4783 30.1484L19.3888 27.2381Z" fill="#E3EBFC"/>
<path d="M32.8443 26.749H57.0072V8.92474H32.8443V26.749Z" fill="#F5F9FF"/>
<path d="M57.0072 11.1465H32.8443V8.92339H57.0072V11.1465Z" fill="#D0DBF7"/>
<path d="M34.784 10.0869C34.784 10.3679 34.556 10.5957 34.2751 10.5957C33.9941 10.5957 33.7664 10.3679 33.7664 10.0869C33.7664 9.80582 33.9941 9.57815 34.2751 9.57815C34.556 9.57815 34.784 9.80582 34.784 10.0869Z" fill="#F2F2F2"/>
<path d="M36.4967 10.0869C36.4967 10.3679 36.2689 10.5957 35.9879 10.5957C35.7069 10.5957 35.4792 10.3679 35.4792 10.0869C35.4792 9.80582 35.7069 9.57815 35.9879 9.57815C36.2689 9.57815 36.4967 9.80582 36.4967 10.0869Z" fill="#F2F2F2"/>
<path d="M38.2102 10.0869C38.2102 10.3679 37.9824 10.5957 37.7014 10.5957C37.4205 10.5957 37.1927 10.3679 37.1927 10.0869C37.1927 9.80582 37.4205 9.57815 37.7014 9.57815C37.9824 9.57815 38.2102 9.80582 38.2102 10.0869Z" fill="#F2F2F2"/>
<path d="M49.0507 15.9939L47.8359 14.7791L44.9256 17.6894L42.0149 14.7791L40.8002 15.9939L43.7106 18.9041L40.8002 21.8145L42.0149 23.0293L44.9256 20.119L47.8359 23.0293L49.0507 21.8145L46.1403 18.9041L49.0507 15.9939Z" fill="#E3EBFC"/>
<path d="M59.8921 49.8561C59.8921 51.2656 46.6678 52.4082 30.3547 52.4082C14.0417 52.4082 0.817322 51.2656 0.817322 49.8561C0.817322 48.4463 14.0417 47.3037 30.3547 47.3037C46.6678 47.3037 59.8921 48.4463 59.8921 49.8561Z" fill="#EDF0FC"/>
<path d="M24.0855 10.8131C23.9045 10.7491 23.771 10.6269 23.6851 10.4466C23.5969 10.2618 23.5852 10.0801 23.6507 9.90138C23.7155 9.72285 23.8407 9.58939 24.0255 9.50114C24.2057 9.41522 24.3886 9.40315 24.5743 9.46494C24.7597 9.52702 24.8956 9.64783 24.9815 9.82811C25.0674 10.0084 25.076 10.1901 25.0075 10.3732C24.9389 10.5562 24.8143 10.6908 24.634 10.7768C24.4493 10.865 24.2662 10.8772 24.0855 10.8131ZM23.1513 9.22055C22.9262 8.74906 22.9381 8.29226 23.1867 7.85014L23.3075 7.63948C23.4256 7.44699 23.5012 7.29898 23.5339 7.19532C23.5668 7.09181 23.5579 6.98669 23.5072 6.88042C23.3794 6.61233 23.0911 6.58528 22.6428 6.79915C22.4348 6.89844 22.2331 7.02871 22.0377 7.18994C21.8425 7.35117 21.6696 7.53029 21.5193 7.72656L21.01 6.659C21.3425 6.26209 21.7724 5.93788 22.2993 5.68651C22.8678 5.41522 23.3753 5.31926 23.8215 5.39864C24.2678 5.47788 24.5913 5.7278 24.7919 6.14825C24.9043 6.38407 24.9421 6.59997 24.9055 6.79624C24.8684 6.99265 24.7659 7.24155 24.5977 7.54308C24.4863 7.74953 24.4072 7.90495 24.3606 8.00948C24.3141 8.11401 24.2909 8.21709 24.2914 8.31901C24.2918 8.42107 24.3207 8.53214 24.378 8.65223L24.4408 8.78395L23.2206 9.36608L23.1513 9.22055Z" fill="#E2E6FF"/>
<path d="M28.2237 7.79722C28.1139 7.52986 28.1173 7.25741 28.2336 6.98001C28.3525 6.69564 28.5452 6.50038 28.8112 6.39454C29.0768 6.28841 29.3522 6.2951 29.6367 6.41417C29.914 6.53033 30.111 6.72355 30.2277 6.99397C30.3442 7.26438 30.3446 7.53815 30.2284 7.81554C30.1123 8.09294 29.9166 8.28499 29.6425 8.39142C29.3679 8.49784 29.0918 8.49304 28.8146 8.37688C28.5302 8.25781 28.3329 8.06444 28.2237 7.79722ZM29.0749 5.15077C29.3788 4.42529 29.9036 3.98056 30.6495 3.81627L31.0071 3.74067C31.3418 3.68034 31.5837 3.61651 31.733 3.54949C31.8822 3.48247 31.9914 3.36732 32.0599 3.20362C32.2327 2.79116 31.9739 2.44019 31.2842 2.15131C30.9641 2.01741 30.6156 1.92146 30.2383 1.86388C29.8615 1.80617 29.4871 1.79177 29.1158 1.81998L29.8039 0.177119C30.5832 0.15255 31.3784 0.310147 32.1891 0.649623C33.0639 1.01614 33.6806 1.48966 34.0391 2.07019C34.3978 2.65115 34.4414 3.26497 34.1704 3.91193C34.0185 4.27467 33.8139 4.53375 33.5566 4.68931C33.2991 4.84473 32.9168 4.97921 32.4097 5.0929C32.0658 5.17476 31.812 5.24178 31.6478 5.29426C31.484 5.34689 31.3449 5.42424 31.2307 5.52703C31.1166 5.62981 31.0209 5.77374 30.9436 5.95838L30.8587 6.1612L28.9812 5.37481L29.0749 5.15077Z" fill="#E2E6FF"/>
<path d="M59.5347 31.3126V30.4779H58.9799V31.3126H58.1451V31.8673H58.9799V32.7021H59.5347V31.8673H60.3693V31.3126H59.5347Z" fill="#CAD2F9"/>
<path d="M54.2937 4.59653V3.32353H53.4474V4.59653H52.1744V5.44282H53.4474V6.71582H54.2937V5.44282H55.5668V4.59653H54.2937Z" fill="#CAD2F9"/>
<path d="M51.9865 29.235V28.6272H51.5823V29.235H50.9745V29.6392H51.5823V30.2471H51.9865V29.6392H52.5945V29.235H51.9865Z" fill="#CAD2F9"/>
<path d="M17.3228 8.09149V7.48363H16.9186V8.09149H16.3108V8.49566H16.9186V9.10352H17.3228V8.49566H17.9307V8.09149H17.3228Z" fill="#CAD2F9"/>
<path d="M12.6366 4.06954V3.23473H12.0817V4.06954H11.247V4.62433H12.0817V5.45898H12.6366V4.62433H13.4714V4.06954H12.6366Z" fill="#CAD2F9"/>
<path d="M40.0465 5.77735C40.0465 5.95254 39.9045 6.09473 39.7291 6.09473C39.5538 6.09473 39.4117 5.95254 39.4117 5.77735C39.4117 5.60187 39.5538 5.45983 39.7291 5.45983C39.9045 5.45983 40.0465 5.60187 40.0465 5.77735Z" fill="#EEF1FF"/>
<path d="M41.3465 0.317395C41.3465 0.492584 41.2043 0.634766 41.0291 0.634766C40.8538 0.634766 40.7116 0.492584 40.7116 0.317395C40.7116 0.142059 40.8538 -0.00013262 41.0291 -0.00013262C41.2043 -0.00013262 41.3465 0.142059 41.3465 0.317395Z" fill="#EEF1FF"/>
<path d="M48.1485 2.92715C48.1485 3.25906 47.8793 3.52832 47.5474 3.52832C47.2155 3.52832 46.9464 3.25906 46.9464 2.92715C46.9464 2.59523 47.2155 2.32613 47.5474 2.32613C47.8793 2.32613 48.1485 2.59523 48.1485 2.92715Z" fill="#EEF1FF"/>
<path d="M60.2097 25.5059C60.2097 25.6812 60.0675 25.8232 59.8921 25.8232C59.717 25.8232 59.5748 25.6812 59.5748 25.5059C59.5748 25.3305 59.717 25.1883 59.8921 25.1883C60.0675 25.1883 60.2097 25.3305 60.2097 25.5059Z" fill="#EEF1FF"/>
<path d="M59.892 35.4141C59.892 35.5894 59.7498 35.7314 59.5746 35.7314C59.3993 35.7314 59.2573 35.5894 59.2573 35.4141C59.2573 35.2387 59.3993 35.0967 59.5746 35.0967C59.7498 35.0967 59.892 35.2387 59.892 35.4141Z" fill="#EEF1FF"/>
<path d="M11.565 18.0819C11.565 18.2572 11.4229 18.3994 11.2476 18.3994C11.0724 18.3994 10.9302 18.2572 10.9302 18.0819C10.9302 17.9066 11.0724 17.7645 11.2476 17.7645C11.4229 17.7645 11.565 17.9066 11.565 18.0819Z" fill="#EEF1FF"/>
<path d="M6.64111 4.91949C6.64111 5.2514 6.37199 5.52051 6.03999 5.52051C5.70804 5.52051 5.4389 5.2514 5.4389 4.91949C5.4389 4.58742 5.70804 4.31831 6.03999 4.31831C6.37199 4.31831 6.64111 4.58742 6.64111 4.91949Z" fill="#EEF1FF"/>
<path d="M17.8933 1.52623C17.8933 1.70157 17.7513 1.84375 17.5759 1.84375C17.4006 1.84375 17.2585 1.70157 17.2585 1.52623C17.2585 1.35104 17.4006 1.20885 17.5759 1.20885C17.7513 1.20885 17.8933 1.35104 17.8933 1.52623Z" fill="#EEF1FF"/>
<path d="M1.13483 20.5615C1.13483 20.7369 0.992728 20.8789 0.817407 20.8789C0.642158 20.8789 0.5 20.7369 0.5 20.5615C0.5 20.3863 0.642158 20.2442 0.817407 20.2442C0.992728 20.2442 1.13483 20.3863 1.13483 20.5615Z" fill="#EEF1FF"/>
<path d="M1.13483 37.4764C1.13483 37.6518 0.992728 37.7939 0.817407 37.7939C0.642158 37.7939 0.5 37.6518 0.5 37.4764C0.5 37.3012 0.642158 37.1592 0.817407 37.1592C0.992728 37.1592 1.13483 37.3012 1.13483 37.4764Z" fill="#EEF1FF"/>
<path d="M47.4132 47.0342C47.4132 47.0342 42.1533 36.5186 56.4197 29.5393C56.4197 29.5393 57.5134 44.5238 47.4132 47.0342Z" fill="#6E7FDD"/>
<path d="M48.019 45.6934C48.0155 44.1901 48.3296 42.6967 48.7624 41.2558C48.8179 41.0758 48.8675 40.8933 48.9283 40.7148L49.1212 40.1832L49.3151 39.6514L49.5342 39.1298C49.816 38.4289 50.1701 37.762 50.5044 37.0855L51.0731 36.1074C51.2565 35.7776 51.4645 35.4633 51.6758 35.1512C51.8892 34.8405 52.0916 34.5224 52.3139 34.2185C52.5407 33.9178 52.7712 33.6199 53.0028 33.3237L53.35 32.8791L53.7231 32.4557L54.4743 31.6158C54.5974 31.4742 54.7344 31.3451 54.8689 31.214L55.2732 30.8221C55.5433 30.5619 55.8162 30.3049 56.0906 30.0507C55.8549 30.3432 55.6179 30.6329 55.378 30.9193L55.0176 31.3473C54.8972 31.4895 54.7742 31.6293 54.6656 31.7815L53.9856 32.6683L53.6433 33.108L53.3241 33.5656C53.1128 33.8712 52.9002 34.1755 52.6842 34.477C52.4748 34.7832 52.2862 35.1032 52.0863 35.4152C51.6713 36.0304 51.3302 36.6896 50.9578 37.3298C50.2626 38.6376 49.6495 39.9884 49.1427 41.3818C48.6459 42.7778 48.2284 44.2101 48.019 45.6934Z" fill="#B3C9F9"/>
<path d="M47.5628 46.584C47.5628 46.584 47.5599 46.578 47.5543 46.5662L47.8779 44.5246C47.948 44.4965 48.017 44.468 48.0859 44.4387C48.0419 44.8555 48.0182 45.2738 48.0192 45.6931C48.0824 45.2447 48.1649 44.8008 48.2626 44.3613C48.8856 44.0813 49.4572 43.7452 49.9831 43.3627C49.0735 44.493 48.3664 45.5651 47.8208 46.5165C47.7356 46.5401 47.6498 46.5625 47.5628 46.584Z" fill="#6379D7"/>
<path d="M48.0188 45.6934C48.0178 45.2741 48.0415 44.8558 48.0856 44.439C48.1446 44.414 48.2042 44.3878 48.2622 44.3616C48.1645 44.8011 48.0821 45.245 48.0188 45.6934Z" fill="#A1BCF0"/>
<path d="M55.3007 38.7842C56.761 34.218 56.4196 29.5404 56.4196 29.5404C56.2308 29.6327 56.0444 29.7262 55.8622 29.82C55.8714 29.6858 55.8792 29.5579 55.8859 29.4367C56.1088 29.3209 56.3362 29.2057 56.5692 29.0916C56.5692 29.0916 56.9333 34.0812 55.3007 38.7842Z" fill="#E5ECF5"/>
<path d="M52.3773 40.9404C54.8142 37.5918 55.5797 33.09 55.8178 30.3904C55.9091 30.2786 56 30.1663 56.0909 30.0537C56.0022 30.1357 55.9138 30.2181 55.8255 30.3007C55.8398 30.1332 55.8521 29.9728 55.8626 29.8208C56.0448 29.727 56.2311 29.6335 56.42 29.5412C56.42 29.5412 56.7614 34.2188 55.3011 38.7849C55.2479 38.9382 55.1927 39.0913 55.1351 39.2436C54.2386 39.6205 53.3005 40.1905 52.3773 40.9404Z" fill="#6379D7"/>
<path d="M55.8176 30.3887C55.8202 30.3584 55.8229 30.3289 55.8253 30.299C55.9136 30.2164 56.002 30.134 56.0907 30.052C55.9998 30.1646 55.9089 30.2769 55.8176 30.3887Z" fill="#A1BCF0"/>
<path d="M46.126 50.4209C46.126 50.4209 46.8745 47.2188 50.0051 43.3386C53.4352 39.0875 57.908 37.5577 59.7647 39.6011C61.5669 41.5844 60.0358 44.3244 55.3935 45.7246C50.7511 47.1249 48.1264 47.7281 46.126 50.4209Z" fill="#FFCF74"/>
<path d="M58.2947 40.7124C57.2325 41.1327 56.2036 41.6199 55.1932 42.136C54.1857 42.6581 53.2021 43.2237 52.2637 43.8552C51.3223 44.4817 50.4261 45.1749 49.5948 45.9411C48.7667 46.7103 48.0075 47.5563 47.3514 48.4932C47.6161 47.9865 47.9284 47.504 48.2666 47.0392C48.6158 46.5834 48.9858 46.1405 49.3926 45.733C50.1982 44.9094 51.1038 44.1885 52.0572 43.5464C52.5379 43.2307 53.0274 42.9293 53.529 42.6495C54.0336 42.3755 54.5438 42.1116 55.0669 41.8762C56.1091 41.3991 57.1869 40.9964 58.2947 40.7124Z" fill="#F9AB43"/>
<path d="M46.126 50.4209V50.4207C46.1262 50.42 46.1282 50.4113 46.1324 50.3949C46.1381 50.3931 46.1438 50.3912 46.1494 50.3894C46.1416 50.3998 46.1337 50.4103 46.126 50.4209ZM47.1221 49.2937C47.1232 49.2875 47.1243 49.2812 47.1253 49.275L47.4572 47.1808C47.7055 46.7111 47.9963 46.2035 48.3352 45.6674C48.7302 45.6671 49.1208 45.6512 49.5057 45.6207C49.4679 45.6586 49.4301 45.6967 49.3926 45.735C48.9858 46.1425 48.6158 46.5853 48.2666 47.0411C47.9284 47.5059 47.6161 47.9884 47.3514 48.4951C48.0075 47.5583 48.7667 46.7123 49.5948 45.943C49.731 45.8174 49.869 45.6938 50.0086 45.5723C54.4606 45.0658 58.0977 42.5874 59.4389 39.3021C59.5543 39.3921 59.6641 39.4904 59.7647 39.6011C60.2567 40.1424 60.5002 40.7402 60.4999 41.3516C60.4993 42.9803 58.7688 44.7067 55.3935 45.7246C51.4815 46.9045 49.0024 47.5186 47.1221 49.2937Z" fill="#E5C178"/>
<path d="M47.3514 48.4932C47.6161 47.9865 47.9284 47.504 48.2666 47.0392C48.6158 46.5834 48.9858 46.1405 49.3926 45.733C49.4301 45.6948 49.4679 45.6567 49.5057 45.6188C49.6745 45.6054 49.8421 45.5892 50.0086 45.5703C49.869 45.6919 49.7311 45.8155 49.5948 45.9411C48.7667 46.7103 48.0075 47.5563 47.3514 48.4932Z" fill="#E0A14C"/>
<path d="M19.183 48.6227C19.183 48.6227 8.37813 53.2591 2.24426 38.6093C2.24426 38.6093 17.2671 38.393 19.183 48.6227Z" fill="#6E7FDD"/>
<path d="M18.3204 48.1123C16.8196 48.0281 15.3471 47.6273 13.934 47.1112C13.7575 47.0452 13.5782 46.985 13.4036 46.9139L12.8841 46.6902L12.3647 46.4655L11.8567 46.2164C11.1734 45.8942 10.5284 45.5016 9.87245 45.1284L8.92933 44.5036C8.6108 44.3015 8.30919 44.0751 8.00984 43.846C7.71219 43.6148 7.40637 43.3943 7.1161 43.1545C6.82926 42.9106 6.54535 42.6631 6.26292 42.4145L5.83948 42.0419L5.43866 41.6447L4.64403 40.8457C4.50989 40.7147 4.38904 40.5703 4.26597 40.4284L3.89848 40.0018C3.65433 39.7169 3.41382 39.4296 3.17609 39.1409C3.45425 39.3933 3.72969 39.6468 4.00144 39.903L4.40778 40.2878C4.54277 40.4163 4.6752 40.5472 4.82082 40.6645L5.66617 41.3951L6.08529 41.7628L6.52326 42.1079C6.81613 42.3367 7.10741 42.5666 7.3958 42.7999C7.68925 43.0267 7.99768 43.2341 8.29754 43.4517C8.88746 43.9018 9.52556 44.281 10.1429 44.69C11.408 45.4605 12.7206 46.1515 14.0821 46.7389C15.4465 47.3163 16.8521 47.8168 18.3204 48.1123Z" fill="#B3C9F9"/>
<path d="M2.27602 38.6816C2.26539 38.6566 2.25483 38.6313 2.24426 38.6062C2.25472 38.6312 2.2655 38.6568 2.27602 38.6816ZM2.43315 38.6063H2.43297C2.43309 38.6063 2.43309 38.6063 2.43315 38.6063ZM2.24426 38.6062C2.24426 38.6062 2.26885 38.6057 2.3165 38.6057C2.26902 38.6057 2.24426 38.6062 2.24426 38.6062ZM2.40407 38.6062C2.40231 38.6062 2.40032 38.606 2.39856 38.606C2.40044 38.606 2.4022 38.6062 2.40407 38.6062ZM2.36892 38.6059C2.3687 38.6059 2.36823 38.6059 2.36796 38.6059C2.36829 38.6059 2.36858 38.6059 2.36892 38.6059Z" fill="#E5ECF5"/>
<path d="M13.8589 43.5127C10.6561 40.8648 6.18616 39.8323 3.49606 39.4355C3.38974 39.3379 3.28297 39.2405 3.17587 39.1433C3.25259 39.2366 3.32971 39.3297 3.40706 39.4226C3.09409 39.3773 2.80615 39.3409 2.54877 39.3115C2.45695 39.1065 2.36591 38.8979 2.27602 38.6846C2.2655 38.6597 2.25472 38.6341 2.24426 38.6091C2.24426 38.6091 2.26902 38.6087 2.3165 38.6087C2.32139 38.6087 2.32649 38.6087 2.33183 38.6087C2.3349 38.6087 2.33814 38.6087 2.34138 38.6087C2.34177 38.6087 2.34206 38.6087 2.34251 38.6087C2.34529 38.6088 2.34818 38.6088 2.35115 38.6088C2.35182 38.6088 2.35262 38.6088 2.3533 38.6088C2.35557 38.6088 2.3579 38.6088 2.36024 38.6088C2.36069 38.6088 2.36102 38.6088 2.36149 38.6088C2.36352 38.6088 2.36579 38.6088 2.36796 38.6088C2.36823 38.6088 2.3687 38.6088 2.36892 38.6088C2.37102 38.6088 2.37306 38.6088 2.37517 38.6088C2.37562 38.6088 2.37619 38.6088 2.37664 38.6088C2.37999 38.609 2.3834 38.609 2.38693 38.609C2.39004 38.609 2.39323 38.609 2.39653 38.609C2.39715 38.609 2.39794 38.609 2.39856 38.609C2.40032 38.609 2.40231 38.6091 2.40407 38.6091C2.41044 38.6091 2.41691 38.6091 2.42355 38.6093C2.42378 38.6093 2.42389 38.6093 2.42412 38.6093C2.42701 38.6093 2.43002 38.6093 2.43297 38.6093H2.43315C3.18859 38.6167 6.10443 38.7044 9.30958 39.581C11.2847 40.7034 12.7269 41.6643 13.776 43.0451L13.8589 43.5127Z" fill="#6379D7"/>
<path d="M3.49628 39.4346C3.46617 39.4302 3.43694 39.4258 3.40728 39.4216C3.32993 39.3287 3.25281 39.2357 3.17609 39.1423C3.28319 39.2396 3.38996 39.337 3.49628 39.4346Z" fill="#A1BCF0"/>
<path d="M14.7395 44.6738C14.7395 44.6738 14.6869 41.3859 12.45 36.9303C9.99908 32.0484 5.95225 29.6056 3.70451 31.2088C1.52269 32.7648 2.43828 35.7674 6.67832 38.1198C10.9185 40.4723 13.3555 41.6183 14.7395 44.6738Z" fill="#FFCF74"/>
<path d="M4.90497 32.6075C5.854 33.2433 6.75625 33.9376 7.63436 34.6561C8.50815 35.3799 9.34939 36.1413 10.1326 36.9573C10.92 37.7691 11.6488 38.6367 12.2988 39.5615C12.9451 40.4889 13.5076 41.4766 13.9501 42.5312C13.7989 41.9799 13.596 41.4422 13.3639 40.9162C13.1194 40.3968 12.8516 39.8855 12.5405 39.4011C11.9278 38.4256 11.1956 37.529 10.3999 36.6994C9.99723 36.289 9.58259 35.8906 9.15166 35.5109C8.71667 35.1359 8.27411 34.7701 7.8129 34.429C6.8955 33.7418 5.92755 33.1197 4.90497 32.6075Z" fill="#F9AB43"/>
<path d="M3.70453 31.208C3.70613 31.2069 3.70774 31.2057 3.70936 31.2045C3.70781 31.2057 3.70606 31.2069 3.70453 31.208Z" fill="#DCE7F5"/>
<path d="M13.7761 43.0439C12.3078 41.1113 10.0699 40.0018 6.67838 38.12C2.43828 35.7675 1.52269 32.765 3.70451 31.209C3.70586 31.2079 3.7074 31.2069 3.70877 31.2059C3.82928 31.1204 3.95592 31.0485 4.08625 30.9859C4.70062 34.4807 7.72982 37.6738 11.9731 39.1126C12.0838 39.261 12.1924 39.411 12.2989 39.5625C12.7509 40.2113 13.162 40.8893 13.5196 41.5992L13.7761 43.0439ZM13.4223 41.0511C13.4031 41.0064 13.3837 40.9619 13.364 40.9172C13.1195 40.3979 12.8517 39.8866 12.5406 39.4022C12.5121 39.3568 12.4833 39.3116 12.4542 39.2665C12.6793 39.3344 12.908 39.3975 13.1391 39.4552L13.4223 41.0511Z" fill="#E5C178"/>
<path d="M13.5195 41.5977C13.1618 40.8877 12.7508 40.2097 12.2988 39.5609C12.1923 39.4095 12.0837 39.2594 11.973 39.111C12.1318 39.1649 12.292 39.2161 12.4541 39.2649C12.4832 39.31 12.512 39.3552 12.5405 39.4006C12.8516 39.885 13.1194 40.3963 13.3639 40.9157C13.3836 40.9603 13.403 41.0048 13.4222 41.0496L13.5195 41.5977Z" fill="#E0A14C"/>
<path d="M44.6676 47.8583C44.5501 48.6359 43.7685 49.2725 42.9307 49.2725H18.1434C17.3057 49.2725 16.5155 48.6372 16.3874 47.8608L12.2833 22.9712C12.1554 22.1948 12.736 21.5595 13.5737 21.5595H47.1195C47.9572 21.5595 48.5465 22.196 48.4289 22.9739L44.6676 47.8583Z" fill="#F9AB43"/>
<path d="M38.4479 13.2417H17.5757V42.6455H43.0998V17.9618L38.4479 13.2417Z" fill="#C2CEF2"/>
<path d="M38.4479 13.2399L43.1338 17.9258H38.4479V13.2399Z" fill="#7997F2"/>
<path d="M37.4227 22.5409L35.3415 20.4597L30.3549 25.446L25.3683 20.4597L23.2869 22.5409L28.2735 27.5272L23.2869 32.5135L25.3683 34.5947L30.3549 29.6084L35.3415 34.5947L37.4227 32.5135L32.4362 27.5272L37.4227 22.5409Z" fill="#AFC2E8"/>
<path d="M32.7771 30.099C32.1189 30.0999 31.4218 29.5861 31.2279 28.9572L30.2718 25.8559C30.0779 25.227 29.3807 24.7125 28.7226 24.7125H11.7195C11.0614 24.7125 10.6169 25.2426 10.7319 25.8907L14.8823 49.2777C14.9973 49.9257 15.6298 50.4561 16.288 50.4561H45.7415C46.3996 50.4561 47.0223 49.9243 47.1255 49.2742L49.9815 31.2559C50.0846 30.6058 49.6304 30.0746 48.9722 30.0755L32.7771 30.099Z" fill="#FFCF74"/>
<path d="M28.9089 44.2655C28.6722 44.0291 28.554 43.7368 28.554 43.3887C28.554 43.0318 28.6722 42.7372 28.9089 42.5052C29.145 42.2733 29.4422 42.1571 29.799 42.1571C30.1469 42.1571 30.4438 42.2753 30.6893 42.5117C30.9344 42.7486 31.0573 43.0406 31.0573 43.3887C31.0573 43.7368 30.9344 44.0291 30.6893 44.2655C30.4438 44.5021 30.1469 44.6201 29.799 44.6201C29.4422 44.6201 29.145 44.5021 28.9089 44.2655ZM28.6343 41.0595C28.6343 40.1492 28.9959 39.4396 29.7186 38.9307L30.0666 38.69C30.3968 38.4761 30.6267 38.2998 30.7562 38.1614C30.8853 38.0231 30.9504 37.8514 30.9504 37.6461C30.9504 37.1285 30.5172 36.8696 29.6517 36.8696C29.25 36.8696 28.8352 36.9233 28.4068 37.0303C27.9786 37.1373 27.5724 37.2892 27.1887 37.4853V35.4237C28.0096 35.0489 28.9288 34.8617 29.9461 34.8617C31.0439 34.8617 31.9142 35.0915 32.5565 35.5511C33.1991 36.0108 33.5203 36.6466 33.5203 37.4584C33.5203 37.9136 33.4176 38.2819 33.2126 38.5629C33.0072 38.8441 32.6592 39.1586 32.1685 39.5065C31.8382 39.7477 31.5971 39.9329 31.4455 40.0623C31.2937 40.1917 31.18 40.3365 31.1043 40.4973C31.0282 40.6579 30.9904 40.8543 30.9904 41.0862V41.3408H28.6343V41.0595Z" fill="white"/>
<path d="M45.7413 50.4561H16.2879C15.6419 50.4561 15.0208 49.9453 14.8891 49.3139C14.8866 49.302 14.8843 49.29 14.8821 49.2777L14.5354 47.3239L14.5275 47.2798C17.4447 48.2884 20.6869 48.8507 24.1031 48.8507C29.2718 48.8507 34.0434 47.5645 37.8912 45.3913C38.8474 45.992 39.9381 46.2922 41.0289 46.2922C42.5405 46.2922 44.0519 45.7156 45.2053 44.5624C47.2383 42.5292 47.4791 39.3822 45.9277 37.0851C46.7472 35.2919 47.1923 33.3664 47.1923 31.3621C47.1923 30.9302 47.1709 30.5022 47.1302 30.0782L48.9721 30.0755C48.9725 30.0755 48.9731 30.0755 48.9735 30.0755C49.568 30.0755 49.9957 30.5096 49.9959 31.073C49.996 31.1327 49.9912 31.1938 49.9813 31.2559L47.8778 44.5274L47.5541 46.5691L47.1254 49.2742C47.044 49.7867 46.6396 50.2258 46.1495 50.3887C46.1439 50.3905 46.1382 50.3924 46.1325 50.3941H46.1324C46.0062 50.4342 45.8745 50.4561 45.7413 50.4561Z" fill="#E5C178"/>
<path d="M16.5866 46.0674C16.4235 46.0674 16.241 45.9629 16.2159 45.7946L16.2115 45.7653C16.1621 45.5401 16.1427 45.3037 16.1087 45.0759C16.0363 44.5906 15.964 44.1054 15.8916 43.6201C15.6737 42.1596 15.4559 40.699 15.2381 39.2386C14.9844 37.5375 14.7307 35.8362 14.477 34.135C14.2687 32.7381 14.0604 31.3411 13.8522 29.9441C13.7645 29.357 13.677 28.77 13.5895 28.1829C13.5595 27.9824 13.6366 27.7818 13.8506 27.7229C13.8789 27.7151 13.909 27.7113 13.94 27.7113C14.1031 27.7113 14.2856 27.816 14.3106 27.984L14.3149 28.0135C14.3645 28.2386 14.3838 28.475 14.4177 28.703C14.4901 29.1883 14.5625 29.6734 14.6349 30.1586C14.8527 31.6191 15.0705 33.0796 15.2883 34.54C15.542 36.2412 15.7957 37.9425 16.0494 39.6438C16.2577 41.0407 16.4661 42.4375 16.6744 43.8347C16.7619 44.4218 16.8494 45.0088 16.9371 45.5959C16.9669 45.7964 16.89 45.997 16.6759 46.0559C16.6477 46.0637 16.6174 46.0674 16.5866 46.0674Z" fill="#FFDD9E"/>
<path d="M54.6356 15.2339C52.3372 15.2339 50.4741 17.0968 50.4741 19.3952C50.4741 20.4224 50.847 21.3619 51.4637 22.0878L51.29 24.2305L53.2781 23.3289C53.7038 23.4759 54.16 23.5566 54.6356 23.5566C56.9337 23.5566 58.797 21.6935 58.797 19.3952C58.797 17.0968 56.9337 15.2339 54.6356 15.2339Z" fill="#EB725F"/>
<path d="M54.1125 16.845H55.1601L54.9654 20.1958H54.3072L54.1125 16.845ZM54.3475 21.5255C54.2715 21.4493 54.2334 21.3554 54.2334 21.2435C54.2334 21.1317 54.2715 21.0376 54.3475 20.9616C54.4238 20.8854 54.5176 20.8472 54.6295 20.8472C54.7415 20.8472 54.8366 20.8854 54.9151 20.9616C54.9933 21.0376 55.0325 21.1317 55.0325 21.2435C55.0325 21.3554 54.9933 21.4493 54.9151 21.5255C54.8366 21.6016 54.7415 21.6396 54.6295 21.6396C54.5176 21.6396 54.4238 21.6016 54.3475 21.5255Z" fill="#F2F2F2"/>
<path d="M51.4567 22.0788C51.4561 22.078 51.4555 22.0773 51.4547 22.0765C51.4554 22.0773 51.4561 22.078 51.4567 22.0788ZM51.4529 22.0742C51.4524 22.0737 51.452 22.0733 51.4517 22.0727C51.4521 22.0733 51.4524 22.0736 51.4529 22.0742Z" fill="#DCE7F5"/>
<path d="M51.29 24.2305L51.4637 22.0878C51.4618 22.0854 51.4598 22.0831 51.4578 22.0807C51.4573 22.0802 51.4569 22.0796 51.4564 22.0792C51.4559 22.0785 51.4551 22.0777 51.4546 22.077C51.454 22.0763 51.4534 22.0756 51.4528 22.0748C51.4524 22.0743 51.4521 22.074 51.4517 22.0734C51.4508 22.0724 51.4498 22.0713 51.4489 22.0702C51.2958 21.888 51.1584 21.6923 51.038 21.4857C51.4633 21.5605 51.9041 21.6003 52.3558 21.6003C53.0148 21.6003 53.6506 21.5166 54.2492 21.361C54.267 21.4229 54.2998 21.4777 54.3474 21.5254C54.4238 21.6015 54.5176 21.6396 54.6295 21.6396C54.7414 21.6396 54.8365 21.6015 54.915 21.5254C54.9932 21.4492 55.0325 21.3553 55.0325 21.2434C55.0325 21.1982 55.0261 21.1557 55.0132 21.1163C56.6559 20.4861 57.93 19.2895 58.488 17.8214C58.6843 18.3013 58.7944 18.8256 58.797 19.3756C58.797 19.3759 58.797 19.3759 58.797 19.376C58.797 19.3781 58.797 19.3801 58.797 19.382C58.797 19.3826 58.797 19.3832 58.797 19.3837C58.797 19.3853 58.797 19.3869 58.797 19.3885C58.797 19.3909 58.797 19.3929 58.797 19.3952C58.797 21.6935 56.9337 23.5566 54.6356 23.5566C54.16 23.5566 53.7038 23.4759 53.2781 23.3289L51.29 24.2305Z" fill="#D36E66"/>
<path d="M54.6297 21.6396C54.5177 21.6396 54.4239 21.6016 54.3476 21.5255C54.2999 21.4778 54.2672 21.423 54.2493 21.3611C54.5115 21.2931 54.7668 21.2111 55.0133 21.1164C55.0263 21.1558 55.0327 21.1983 55.0327 21.2435C55.0327 21.3554 54.9934 21.4493 54.9152 21.5255C54.8367 21.6016 54.7416 21.6396 54.6297 21.6396Z" fill="#D9E0EA"/>
<path d="M11.9994 14.1088V10.1629C11.9994 9.68893 11.6118 9.30133 11.1379 9.30133H3.9458C3.47188 9.30133 3.08417 9.68893 3.08417 10.1629V15.1354C3.08417 15.6093 3.47188 15.9971 3.9458 15.9971H10.3851H11.1379H14.0748L11.9994 14.1088Z" fill="#F9AB43"/>
<path d="M6.33963 12.0949C6.33963 12.4735 6.11973 12.7803 5.84844 12.7803C5.57714 12.7803 5.35724 12.4735 5.35724 12.0949C5.35724 11.7165 5.57714 11.4096 5.84844 11.4096C6.11973 11.4096 6.33963 11.7165 6.33963 12.0949Z" fill="white"/>
<path d="M9.60486 12.0949C9.60486 12.4735 9.38503 12.7803 9.11374 12.7803C8.84245 12.7803 8.62256 12.4735 8.62256 12.0949C8.62256 11.7165 8.84245 11.4096 9.11374 11.4096C9.38503 11.4096 9.60486 11.7165 9.60486 12.0949Z" fill="white"/>
<path d="M6.35531 14.012C6.52369 13.8275 6.75795 13.6826 6.99102 13.5985C7.58091 13.3858 8.15122 13.6081 8.6006 14.012C8.72059 14.1199 8.89883 13.9428 8.77831 13.8344C8.28025 13.3866 7.63402 13.1236 6.97138 13.3401C6.68077 13.435 6.38562 13.6064 6.1776 13.8344C6.06868 13.9537 6.24592 14.1318 6.35531 14.012Z" fill="white"/>
<path d="M14.0744 15.9971H7.5274C9.40608 14.7276 10.5971 12.8506 10.5971 10.7546C10.5971 10.2559 10.5282 9.77005 10.4002 9.30133H11.1375C11.6114 9.30133 11.999 9.68893 11.999 10.1629V14.1088L14.0744 15.9971Z" fill="#E0A14C"/>
<path d="M44.5284 43.8842C42.5959 45.8166 39.4626 45.8166 37.5302 43.8842C35.5976 41.9517 35.5976 38.8183 37.5302 36.8859C39.4626 34.9533 42.5959 34.9533 44.5284 36.8859C46.461 38.8183 46.461 41.9517 44.5284 43.8842ZM36.853 36.2088C34.5466 38.5152 34.5466 42.2545 36.853 44.5612C39.1596 46.8676 42.8991 46.8676 45.2056 44.5612C47.512 42.2547 47.512 38.5152 45.2056 36.2088C42.8991 33.9023 39.1596 33.9023 36.853 36.2088Z" fill="#EB725F"/>
<path d="M38.8401 44.8252C38.367 44.592 37.9237 44.2785 37.53 43.8848C36.5636 42.9186 36.0805 41.6522 36.0805 40.3857C36.0805 39.1192 36.5636 37.8528 37.53 36.8866C38.4962 35.9202 39.7625 35.4371 41.029 35.4371C42.2955 35.4371 43.5619 35.9202 44.5282 36.8866C44.8941 37.2523 45.1907 37.6612 45.4179 38.0967C43.9677 40.7268 41.6937 43.0313 38.8401 44.8252Z" fill="#FFDD9E"/>
<path d="M41.0288 45.335C40.2785 45.335 39.5279 45.1653 38.8399 44.826C41.6935 43.0321 43.9675 40.7275 45.4177 38.0975C45.7908 38.8124 45.9775 39.5995 45.9775 40.3865C45.9775 41.6529 45.4944 42.9194 44.528 43.8856C43.5617 44.8518 42.2953 45.335 41.0288 45.335Z" fill="#EDD4A1"/>
<path d="M41.029 45.335C39.7625 45.335 38.4962 44.8518 37.53 43.8856C37.9237 44.2793 38.367 44.5928 38.8401 44.826C39.528 45.1653 40.2787 45.335 41.029 45.335Z" fill="#F19D8F"/>
<path d="M51.7431 50.3604L51.0028 51.1006L44.3062 44.4041L45.0466 43.6637L51.7431 50.3604Z" fill="#6E7FDD"/>
<path d="M47.5129 46.1297L46.7725 46.8701L44.3062 44.4038L45.0466 43.6633L47.5129 46.1297Z" fill="#EB725F"/>
<path d="M38.1481 38.3506C38.336 37.809 38.7476 37.3711 39.2423 37.0668C39.7404 36.7649 40.3318 36.6028 40.9234 36.6029C41.5151 36.6015 42.1068 36.7631 42.6051 37.0654C43.1003 37.3692 43.5117 37.808 43.6985 38.3506C43.1576 38.1678 42.6999 38.0232 42.2454 37.9348C41.7946 37.8433 41.3593 37.8015 40.9234 37.7993C40.4874 37.8002 40.0518 37.8416 39.6008 37.9333C39.1459 38.0214 38.6882 38.1668 38.1481 38.3506Z" fill="white"/>
</svg>
