<svg width="25" height="24" viewBox="0 0 25 24" fill="none" xmlns="http://www.w3.org/2000/svg">
<path fill-rule="evenodd" clip-rule="evenodd" d="M7.26943 6.55301C7.51642 7.04698 7.31619 7.64766 6.82221 7.89465L3.375 9.61825V20.0002C3.375 20.2654 3.48036 20.5198 3.66789 20.7073C3.85543 20.8949 4.10978 21.0002 4.375 21.0002H20.375C20.6402 21.0002 20.8946 20.8949 21.0821 20.7073C21.2696 20.5198 21.375 20.2654 21.375 20.0002V9.61825L17.9278 7.89465C17.4338 7.64766 17.2336 7.04698 17.4806 6.55301C17.7276 6.05903 18.3282 5.8588 18.8222 6.10579L22.8222 8.10579C23.161 8.27518 23.375 8.62145 23.375 9.00022V20.0002C23.375 20.7959 23.0589 21.5589 22.4963 22.1215C21.9337 22.6841 21.1707 23.0002 20.375 23.0002H4.375C3.57935 23.0002 2.81629 22.6841 2.25368 22.1215C1.69107 21.5589 1.375 20.7959 1.375 20.0002V9.00022C1.375 8.62145 1.589 8.27518 1.92779 8.10579L5.92779 6.10579C6.42176 5.8588 7.02244 6.05903 7.26943 6.55301Z" fill="#595959"/>
<path fill-rule="evenodd" clip-rule="evenodd" d="M10.2537 15.8787C10.8163 15.3161 11.5793 15 12.375 15C13.1707 15 13.9337 15.3161 14.4963 15.8787C15.0589 16.4413 15.375 17.2043 15.375 18V22C15.375 22.5523 14.9273 23 14.375 23C13.8227 23 13.375 22.5523 13.375 22V18C13.375 17.7348 13.2696 17.4804 13.0821 17.2929C12.8946 17.1054 12.6402 17 12.375 17C12.1098 17 11.8554 17.1054 11.6679 17.2929C11.4804 17.4804 11.375 17.7348 11.375 18V22C11.375 22.5523 10.9273 23 10.375 23C9.82272 23 9.375 22.5523 9.375 22V18C9.375 17.2043 9.69107 16.4413 10.2537 15.8787Z" fill="#595959"/>
<path fill-rule="evenodd" clip-rule="evenodd" d="M11.9278 1.10557C12.2093 0.964809 12.5407 0.964809 12.8222 1.10557L18.8222 4.10557C19.161 4.27496 19.375 4.62123 19.375 5V22C19.375 22.5523 18.9273 23 18.375 23C17.8227 23 17.375 22.5523 17.375 22V5.61803L12.375 3.11803L7.375 5.61803V22C7.375 22.5523 6.92728 23 6.375 23C5.82272 23 5.375 22.5523 5.375 22V5C5.375 4.62123 5.589 4.27496 5.92779 4.10557L11.9278 1.10557Z" fill="#595959"/>
<path fill-rule="evenodd" clip-rule="evenodd" d="M12.375 6C12.9273 6 13.375 6.44772 13.375 7V12C13.375 12.5523 12.9273 13 12.375 13C11.8227 13 11.375 12.5523 11.375 12V7C11.375 6.44772 11.8227 6 12.375 6Z" fill="#595959"/>
<path fill-rule="evenodd" clip-rule="evenodd" d="M9.375 9C9.375 8.44772 9.82272 8 10.375 8H14.375C14.9273 8 15.375 8.44772 15.375 9C15.375 9.55228 14.9273 10 14.375 10H10.375C9.82272 10 9.375 9.55228 9.375 9Z" fill="#595959"/>
</svg>
