<svg width="24" height="24" viewBox="0 0 24 24" fill="none" xmlns="http://www.w3.org/2000/svg">
<path fill-rule="evenodd" clip-rule="evenodd" d="M12 3C9.25227 3 6.99999 5.25229 6.99999 8C6.99999 11.6473 6.21705 14.0654 5.37788 15.6039C5.30178 15.7434 5.2254 15.8753 5.14931 16H18.8809C18.7607 15.8075 18.6389 15.598 18.5176 15.3706C18.2577 14.8833 18.4421 14.2775 18.9294 14.0176C19.4167 13.7577 20.0224 13.9421 20.2823 14.4294C20.6429 15.1055 20.9966 15.566 21.2474 15.8481C21.3729 15.9894 21.4731 16.0863 21.5358 16.1435C21.5672 16.172 21.5892 16.1907 21.6004 16.1999C21.6039 16.2028 21.6063 16.2047 21.6077 16.2058C21.9464 16.465 22.0838 16.9109 21.9487 17.3162C21.8126 17.7246 21.4304 18 21 18H2.99999C2.55932 18 2.17059 17.7115 2.04289 17.2898C1.91655 16.8725 2.07519 16.4221 2.43368 16.1758C2.43438 16.1753 2.43533 16.1746 2.43653 16.1737C2.44423 16.168 2.46209 16.1544 2.48871 16.1322C2.54192 16.0878 2.63031 16.0091 2.74278 15.8904C2.96721 15.6535 3.2903 15.2544 3.62209 14.6461C4.28292 13.4346 4.99999 11.3527 4.99999 8C4.99999 4.14772 8.1477 1 12 1C12.8044 1 13.5114 1.11639 14.2162 1.35132C14.7402 1.52596 15.0233 2.09228 14.8487 2.61623C14.674 3.14017 14.1077 3.42333 13.5838 3.24868C13.0886 3.08361 12.5955 3 12 3ZM2.44378 16.169C2.44386 16.1689 2.44394 16.1688 2.44402 16.1688C2.44402 16.1688 2.44401 16.1688 2.44401 16.1688L2.44378 16.169Z" fill="#1F1F1F"/>
<path fill-rule="evenodd" clip-rule="evenodd" d="M9.8182 20.1239C10.3022 19.8578 10.9102 20.0344 11.1763 20.5184C11.2574 20.6659 11.3766 20.7889 11.5215 20.8746C11.6664 20.9603 11.8317 21.0055 12 21.0055C12.1683 21.0055 12.3336 20.9603 12.4785 20.8746C12.6234 20.7889 12.7426 20.6659 12.8237 20.5184C13.0898 20.0344 13.6978 19.8578 14.1818 20.1239C14.6657 20.39 14.8424 20.998 14.5763 21.482C14.3226 21.9433 13.9497 22.3281 13.4965 22.5961C13.0433 22.8641 12.5265 23.0055 12 23.0055C11.4735 23.0055 10.9566 22.8641 10.5035 22.5961C10.0503 22.3281 9.67737 21.9433 9.4237 21.482C9.15762 20.998 9.33424 20.39 9.8182 20.1239Z" fill="#1F1F1F"/>
<path fill-rule="evenodd" clip-rule="evenodd" d="M18 6C16.8954 6 16 6.89543 16 8C16 9.10457 16.8954 10 18 10C19.1046 10 20 9.10457 20 8C20 6.89543 19.1046 6 18 6ZM14 8C14 5.79086 15.7909 4 18 4C20.2091 4 22 5.79086 22 8C22 10.2091 20.2091 12 18 12C15.7909 12 14 10.2091 14 8Z" fill="#12B569"/>
</svg>
