<svg width="20" height="20" viewBox="0 0 20 20" fill="none" xmlns="http://www.w3.org/2000/svg">
<g clip-path="url(#clip0_11070_9027)">
<path fill-rule="evenodd" clip-rule="evenodd" d="M10.0001 0.833008C10.4603 0.833008 10.8334 1.2061 10.8334 1.66634V4.99967C10.8334 5.45991 10.4603 5.83301 10.0001 5.83301C9.53984 5.83301 9.16675 5.45991 9.16675 4.99967V1.66634C9.16675 1.2061 9.53984 0.833008 10.0001 0.833008Z" fill="#F79009"/>
<path fill-rule="evenodd" clip-rule="evenodd" d="M10.0001 14.167C10.4603 14.167 10.8334 14.5401 10.8334 15.0003V18.3337C10.8334 18.7939 10.4603 19.167 10.0001 19.167C9.53984 19.167 9.16675 18.7939 9.16675 18.3337V15.0003C9.16675 14.5401 9.53984 14.167 10.0001 14.167Z" fill="#F79009"/>
<path fill-rule="evenodd" clip-rule="evenodd" d="M3.51898 3.51947C3.84442 3.19403 4.37205 3.19403 4.69749 3.51947L7.05583 5.8778C7.38126 6.20324 7.38126 6.73088 7.05583 7.05631C6.73039 7.38175 6.20275 7.38175 5.87731 7.05631L3.51898 4.69798C3.19354 4.37254 3.19354 3.84491 3.51898 3.51947Z" fill="#F79009"/>
<path fill-rule="evenodd" clip-rule="evenodd" d="M12.944 12.9443C13.2695 12.6188 13.7971 12.6188 14.1225 12.9443L16.4809 15.3026C16.8063 15.628 16.8063 16.1557 16.4809 16.4811C16.1554 16.8066 15.6278 16.8066 15.3024 16.4811L12.944 14.1228C12.6186 13.7973 12.6186 13.2697 12.944 12.9443Z" fill="#F79009"/>
<path fill-rule="evenodd" clip-rule="evenodd" d="M0.833252 10.0003C0.833252 9.54009 1.20635 9.16699 1.66659 9.16699H4.99992C5.46016 9.16699 5.83325 9.54009 5.83325 10.0003C5.83325 10.4606 5.46016 10.8337 4.99992 10.8337H1.66659C1.20635 10.8337 0.833252 10.4606 0.833252 10.0003Z" fill="#F79009"/>
<path fill-rule="evenodd" clip-rule="evenodd" d="M14.1667 10.0003C14.1667 9.54009 14.5398 9.16699 15.0001 9.16699H18.3334C18.7937 9.16699 19.1667 9.54009 19.1667 10.0003C19.1667 10.4606 18.7937 10.8337 18.3334 10.8337H15.0001C14.5398 10.8337 14.1667 10.4606 14.1667 10.0003Z" fill="#F79009"/>
<path fill-rule="evenodd" clip-rule="evenodd" d="M7.05583 12.9443C7.38126 13.2697 7.38126 13.7973 7.05583 14.1228L4.69749 16.4811C4.37205 16.8066 3.84442 16.8066 3.51898 16.4811C3.19354 16.1557 3.19354 15.628 3.51898 15.3026L5.87731 12.9443C6.20275 12.6188 6.73039 12.6188 7.05583 12.9443Z" fill="#F79009"/>
<path fill-rule="evenodd" clip-rule="evenodd" d="M16.4809 3.51947C16.8063 3.84491 16.8063 4.37254 16.4809 4.69798L14.1225 7.05631C13.7971 7.38175 13.2695 7.38175 12.944 7.05631C12.6186 6.73088 12.6186 6.20324 12.944 5.8778L15.3024 3.51947C15.6278 3.19403 16.1554 3.19403 16.4809 3.51947Z" fill="#F79009"/>
</g>
<defs>
<clipPath id="clip0_11070_9027">
<rect width="20" height="20" fill="white"/>
</clipPath>
</defs>
</svg>
