<svg width="20" height="20" viewBox="0 0 20 20" fill="none" xmlns="http://www.w3.org/2000/svg">
<g clip-path="url(#clip0_10463_3486)">
<path fill-rule="evenodd" clip-rule="evenodd" d="M16.5497 2.59783C16.3498 2.52001 16.1356 2.48432 15.9208 2.49319C15.706 2.50205 15.4956 2.55526 15.303 2.64921C15.1105 2.74316 14.9402 2.87568 14.8029 3.03802C14.7879 3.05565 14.7723 3.07265 14.756 3.08897L3.66247 14.1825L2.85441 17.1454L5.81729 16.3373L16.9108 5.24379C16.9299 5.22472 16.9499 5.20659 16.9707 5.18945C17.1355 5.05392 17.2696 4.88611 17.3649 4.69696C17.4602 4.50783 17.5146 4.30134 17.5249 4.09062C17.5352 3.8799 17.5012 3.66924 17.4249 3.472C17.3487 3.27474 17.2317 3.095 17.0811 2.94441C16.9305 2.7938 16.7495 2.67565 16.5497 2.59783ZM15.8521 0.827937C16.2965 0.8096 16.74 0.883388 17.1544 1.04474C17.5688 1.20611 17.9453 1.45159 18.2596 1.76589C18.5739 2.08021 18.8192 2.45646 18.9794 2.87084C19.1397 3.28523 19.2113 3.72843 19.1896 4.17211C19.1679 4.6158 19.0533 5.04991 18.8534 5.44675C18.66 5.83061 18.391 6.17129 18.0628 6.44877L6.83932 17.6723C6.73677 17.7749 6.60924 17.8489 6.46932 17.887L1.88599 19.137C1.59748 19.2157 1.28893 19.1338 1.07747 18.9223C0.866013 18.7108 0.784072 18.4023 0.862757 18.1138L2.11276 13.5305C2.15091 13.3905 2.22492 13.263 2.32747 13.1605L13.5548 1.93312C13.8375 1.60679 14.1836 1.34092 14.5721 1.15136C14.9718 0.956351 15.4077 0.846275 15.8521 0.827937Z" fill="#F79009"/>
</g>
<defs>
<clipPath id="clip0_10463_3486">
<rect width="20" height="20" fill="white"/>
</clipPath>
</defs>
</svg>
