<svg width="20" height="20" viewBox="0 0 20 20" fill="none" xmlns="http://www.w3.org/2000/svg">
<path fill-rule="evenodd" clip-rule="evenodd" d="M3.33337 10.0003C3.33337 9.54009 3.70647 9.16699 4.16671 9.16699H15.8334C16.2936 9.16699 16.6667 9.54009 16.6667 10.0003C16.6667 10.4606 16.2936 10.8337 15.8334 10.8337H4.16671C3.70647 10.8337 3.33337 10.4606 3.33337 10.0003Z" fill="url(#paint0_linear_9731_19002)"/>
<path fill-rule="evenodd" clip-rule="evenodd" d="M9.99996 3.33301C10.4602 3.33301 10.8333 3.7061 10.8333 4.16634V15.833C10.8333 16.2932 10.4602 16.6663 9.99996 16.6663C9.53972 16.6663 9.16663 16.2932 9.16663 15.833V4.16634C9.16663 3.7061 9.53972 3.33301 9.99996 3.33301Z" fill="url(#paint1_linear_9731_19002)"/>
<defs>
<linearGradient id="paint0_linear_9731_19002" x1="16.2092" y1="10.5772" x2="12.9459" y2="4.38035" gradientUnits="userSpaceOnUse">
<stop stop-color="#A31AF2"/>
<stop offset="1" stop-color="#1874A5"/>
</linearGradient>
<linearGradient id="paint1_linear_9731_19002" x1="10.7761" y1="14.6151" x2="8.89889" y2="14.5594" gradientUnits="userSpaceOnUse">
<stop stop-color="#A31AF2"/>
<stop offset="1" stop-color="#1874A5"/>
</linearGradient>
</defs>
</svg>
