<svg width="25" height="24" viewBox="0 0 25 24" fill="none" xmlns="http://www.w3.org/2000/svg">
<path fill-rule="evenodd" clip-rule="evenodd" d="M5.58947 15.4645C6.52715 14.5268 7.79892 14 9.125 14H15.125C16.4511 14 17.7229 14.5268 18.6605 15.4645C19.5982 16.4021 20.125 17.6739 20.125 19V21C20.125 21.5523 19.6773 22 19.125 22C18.5727 22 18.125 21.5523 18.125 21V19C18.125 18.2044 17.8089 17.4413 17.2463 16.8787C16.6837 16.3161 15.9206 16 15.125 16H9.125C8.32935 16 7.56629 16.3161 7.00368 16.8787C6.44107 17.4413 6.125 18.2044 6.125 19V21C6.125 21.5523 5.67728 22 5.125 22C4.57272 22 4.125 21.5523 4.125 21V19C4.125 17.6739 4.65178 16.4021 5.58947 15.4645Z" fill="#595959"/>
<path fill-rule="evenodd" clip-rule="evenodd" d="M12.125 4C10.4681 4 9.125 5.34315 9.125 7C9.125 8.65685 10.4681 10 12.125 10C13.7819 10 15.125 8.65685 15.125 7C15.125 5.34315 13.7819 4 12.125 4ZM7.125 7C7.125 4.23858 9.36358 2 12.125 2C14.8864 2 17.125 4.23858 17.125 7C17.125 9.76142 14.8864 12 12.125 12C9.36358 12 7.125 9.76142 7.125 7Z" fill="#595959"/>
</svg>
