<svg width="33" height="32" viewBox="0 0 33 32" fill="none" xmlns="http://www.w3.org/2000/svg">
<path d="M7.16666 17.3333C7.16666 18.559 7.40807 19.7727 7.87711 20.905C8.34616 22.0374 9.03365 23.0663 9.90033 23.933C10.767 24.7997 11.7959 25.4872 12.9283 25.9562C14.0606 26.4253 15.2743 26.6667 16.5 26.6667C17.7257 26.6667 18.9393 26.4253 20.0717 25.9562C21.2041 25.4872 22.233 24.7997 23.0997 23.933C23.9663 23.0663 24.6538 22.0374 25.1229 20.905C25.5919 19.7727 25.8333 18.559 25.8333 17.3333C25.8333 14.858 24.85 12.484 23.0997 10.7337C21.3493 8.98333 18.9753 8 16.5 8C14.0246 8 11.6507 8.98333 9.90033 10.7337C8.14999 12.484 7.16666 14.858 7.16666 17.3333Z" stroke="#1F1F1F" stroke-width="2" stroke-linecap="round" stroke-linejoin="round"/>
<path d="M19.8333 14L16.5 17.3333" stroke="#1F1F1F" stroke-width="2" stroke-linecap="round" stroke-linejoin="round"/>
<path d="M23.1667 10.6668L24.5 9.3335" stroke="#1F1F1F" stroke-width="2" stroke-linecap="round" stroke-linejoin="round"/>
<path d="M19.1667 4H13.8333" stroke="#1F1F1F" stroke-width="2" stroke-linecap="round" stroke-linejoin="round"/>
</svg>
