<svg width="21" height="20" viewBox="0 0 21 20" fill="none" xmlns="http://www.w3.org/2000/svg">
<path fill-rule="evenodd" clip-rule="evenodd" d="M18.4379 1.79145C18.6836 1.94329 18.8332 2.21151 18.8332 2.50033V15.0003C18.8332 15.316 18.6548 15.6045 18.3725 15.7457L13.3725 18.2457C13.1379 18.363 12.8618 18.363 12.6272 18.2457L7.99984 15.932L3.37252 18.2457C3.11419 18.3748 2.80741 18.361 2.56173 18.2092C2.31605 18.0574 2.1665 17.7891 2.1665 17.5003V5.00033C2.1665 4.68468 2.34484 4.39613 2.62716 4.25497L7.62716 1.75497C7.86177 1.63767 8.13791 1.63767 8.37252 1.75497L12.9998 4.06863L17.6272 1.75497C17.8855 1.62581 18.1923 1.63961 18.4379 1.79145ZM3.83317 5.51535V16.152L7.62716 14.255C7.86177 14.1377 8.13791 14.1377 8.37252 14.255L12.9998 16.5686L17.1665 14.4853V3.84869L13.3725 5.74568C13.1379 5.86299 12.8618 5.86299 12.6272 5.74568L7.99984 3.43202L3.83317 5.51535Z" fill="#595959"/>
<path fill-rule="evenodd" clip-rule="evenodd" d="M7.99984 1.66699C8.46007 1.66699 8.83317 2.04009 8.83317 2.50033V15.0003C8.83317 15.4606 8.46007 15.8337 7.99984 15.8337C7.5396 15.8337 7.1665 15.4606 7.1665 15.0003V2.50033C7.1665 2.04009 7.5396 1.66699 7.99984 1.66699Z" fill="#595959"/>
<path fill-rule="evenodd" clip-rule="evenodd" d="M12.9998 4.16699C13.4601 4.16699 13.8332 4.54009 13.8332 5.00033V17.5003C13.8332 17.9606 13.4601 18.3337 12.9998 18.3337C12.5396 18.3337 12.1665 17.9606 12.1665 17.5003V5.00033C12.1665 4.54009 12.5396 4.16699 12.9998 4.16699Z" fill="#595959"/>
</svg>
